<svg xmlns="http://www.w3.org/2000/svg" viewBox="0 0 40 40">
  <circle cx="20" cy="20" r="19" fill="#000" stroke="#fff" stroke-width="2"/>
  <!-- Fist -->
  <path d="M16 24 L16 18 L18 18 L18 16 L20 16 L20 18 L22 18 L22 16 L24 16 L24 18 L26 18 L26 24 L24 26 L18 26 Z" fill="#fff"/>
  <!-- Thumb -->
  <path d="M14 20 L16 20 L16 24 L14 24 Z" fill="#fff"/>
  <!-- Impact starburst lines -->
  <path d="M28 12 L32 8" stroke="#fff" stroke-width="2" stroke-linecap="round"/>
  <path d="M30 16 L34 14" stroke="#fff" stroke-width="2" stroke-linecap="round"/>
  <path d="M30 20 L34 20" stroke="#fff" stroke-width="2" stroke-linecap="round"/>
  <path d="M8 12 L12 16" stroke="#fff" stroke-width="2" stroke-linecap="round"/>
  <path d="M6 18 L10 18" stroke="#fff" stroke-width="2" stroke-linecap="round"/>
  <path d="M8 24 L12 22" stroke="#fff" stroke-width="2" stroke-linecap="round"/>
</svg>
